HIERARCHY
ROOT hip
{
  OFFSET 0 0 0
  CHANNELS 6 Xposition Yposition Zposition Zrotation Yrotation Xrotation
  JOINT abdomen
  {
    OFFSET 0 20.6881 -0.73152
    CHANNELS 3 Zrotation Xrotation Yrotation
    JOINT chest
    {
      OFFSET 0 11.7043 -0.48768
      CHANNELS 3 Zrotation Xrotation Yrotation
      JOINT neck
      {
        OFFSET 0 22.1894 -2.19456
        CHANNELS 3 Zrotation Xrotation Yrotation
        JOINT head
        {
          OFFSET -0.24384 7.07133 1.2192
          CHANNELS 3 Zrotation Xrotation Yrotation
          JOINT leftEye
          {
            OFFSET 4.14528 8.04674 8.04672
            CHANNELS 3 Zrotation Xrotation Yrotation
            End Site
            {
              OFFSET 1 0 0
            }
          }
          JOINT rightEye
          {
            OFFSET -3.6576 8.04674 8.04672
            CHANNELS 3 Zrotation Xrotation Yrotation
            End Site
            {
              OFFSET 1 0 0
            }
          }
        }
      }
      JOINT rCollar
      {
        OFFSET -2.68224 19.2634 -4.8768
        CHANNELS 3 Zrotation Xrotation Yrotation
        JOINT rShldr
        {
          OFFSET -8.77824 -1.95073 1.46304
          CHANNELS 3 Zrotation Xrotation Yrotation
          JOINT rForeArm
          {
            OFFSET -28.1742 -1.7115 0.48768
            CHANNELS 3 Zrotation Xrotation Yrotation
            JOINT rHand
            {
              OFFSET -22.5879 0.773209 7.07136
              CHANNELS 3 Zrotation Xrotation Yrotation
              JOINT rThumb1
              {
                OFFSET -1.2192 -0.487915 3.41376
                CHANNELS 3 Zrotation Xrotation Yrotation
                JOINT rThumb2
                {
                  OFFSET -3.37035 -0.52449 3.41376
                  CHANNELS 3 Zrotation Xrotation Yrotation
                  End Site
                  {
                    OFFSET -1.78271 -1.18214 1.43049
                  }
                }
              }
              JOINT rIndex1
              {
                OFFSET -7.75947 0.938293 5.60832
                CHANNELS 3 Zrotation Xrotation Yrotation
                JOINT rIndex2
                {
                  OFFSET -2.54057 -0.884171 1.56538
                  CHANNELS 3 Zrotation Xrotation Yrotation
                  End Site
                  {
                    OFFSET -1.62519 -0.234802 1.16502
                  }
                }
              }
              JOINT rMid1
              {
                OFFSET -8.24714 1.18213 3.41376
                CHANNELS 3 Zrotation Xrotation Yrotation
                JOINT rMid2
                {
                  OFFSET -3.10165 -0.590103 1.0647
                  CHANNELS 3 Zrotation Xrotation Yrotation
                  End Site
                  {
                    OFFSET -2.48547 -0.328903 0.83742
                  }
                }
              }
              JOINT rRing1
              {
                OFFSET -8.82822 0.546677 1.51678
                CHANNELS 3 Zrotation Xrotation Yrotation
                JOINT rRing2
                {
                  OFFSET -2.60934 -0.819778 -0.0198488
                  CHANNELS 3 Zrotation Xrotation Yrotation
                  End Site
                  {
                    OFFSET -2.33842 -0.294052 0.168128
                  }
                }
              }
              JOINT rPinky1
              {
                OFFSET -8.27202 -0.0477905 -0.4584
                CHANNELS 3 Zrotation Xrotation Yrotation
                JOINT rPinky2
                {
                  OFFSET -1.82734 -0.647385 -0.700984
                  CHANNELS 3 Zrotation Xrotation Yrotation
                  End Site
                  {
                    OFFSET -1.69225 -0.51767 -0.607171
                  }
                }
              }
            }
          }
        }
      }
      JOINT lCollar
      {
        OFFSET 2.68224 19.2634 -4.8768
        CHANNELS 3 Zrotation Xrotation Yrotation
        JOINT lShldr
        {
          OFFSET 8.77824 -1.95073 1.46304
          CHANNELS 3 Zrotation Xrotation Yrotation
          JOINT lForeArm
          {
            OFFSET 28.1742 -1.7115 0.48768
            CHANNELS 3 Zrotation Xrotation Yrotation
            JOINT lHand
            {
              OFFSET 22.5879 0.773209 7.07136
              CHANNELS 3 Zrotation Xrotation Yrotation
              JOINT lThumb1
              {
                OFFSET 1.2192 -0.487915 3.41376
                CHANNELS 3 Zrotation Xrotation Yrotation
                JOINT lThumb2
                {
                  OFFSET 3.37035 -0.52449 3.41376
                  CHANNELS 3 Zrotation Xrotation Yrotation
                  End Site
                  {
                    OFFSET 1.78271 -1.18214 1.43049
                  }
                }
              }
              JOINT lIndex1
              {
                OFFSET 7.75947 0.938293 5.60832
                CHANNELS 3 Zrotation Xrotation Yrotation
                JOINT lIndex2
                {
                  OFFSET 2.54057 -0.884171 1.56538
                  CHANNELS 3 Zrotation Xrotation Yrotation
                  End Site
                  {
                    OFFSET 1.62519 -0.234802 1.16502
                  }
                }
              }
              JOINT lMid1
              {
                OFFSET 8.24714 1.18213 3.41376
                CHANNELS 3 Zrotation Xrotation Yrotation
                JOINT lMid2
                {
                  OFFSET 3.10165 -0.590103 1.0647
                  CHANNELS 3 Zrotation Xrotation Yrotation
                  End Site
                  {
                    OFFSET 2.48547 -0.328903 0.83742
                  }
                }
              }
              JOINT lRing1
              {
                OFFSET 8.82822 0.546677 1.51678
                CHANNELS 3 Zrotation Xrotation Yrotation
                JOINT lRing2
                {
                  OFFSET 2.60934 -0.819778 -0.0198488
                  CHANNELS 3 Zrotation Xrotation Yrotation
                  End Site
                  {
                    OFFSET 2.33842 -0.294052 0.168128
                  }
                }
              }
              JOINT lPinky1
              {
                OFFSET 8.27202 -0.0477905 -0.4584
                CHANNELS 3 Zrotation Xrotation Yrotation
                JOINT lPinky2
                {
                  OFFSET 1.82734 -0.647385 -0.700984
                  CHANNELS 3 Zrotation Xrotation Yrotation
                  End Site
                  {
                    OFFSET 1.69225 -0.51767 -0.607171
                  }
                }
              }
            }
          }
        }
      }
    }
  }
  JOINT rButtock
  {
    OFFSET -8.77824 4.35084 1.2192
    CHANNELS 3 Zrotation Xrotation Yrotation
    JOINT rThigh
    {
      OFFSET 0 -1.70687 -2.19456
      CHANNELS 3 Zrotation Xrotation Yrotation
      JOINT rShin
      {
        OFFSET 0 -36.8199 0.73152
        CHANNELS 3 Zrotation Xrotation Yrotation
        JOINT rFoot
        {
          OFFSET 0.73152 -45.1104 -5.12064
          CHANNELS 3 Zrotation Xrotation Yrotation
          End Site
          {
            OFFSET -1.1221 -3.69964 12.103
          }
        }
      }
    }
  }
  JOINT lButtock
  {
    OFFSET 8.77824 4.35084 1.2192
    CHANNELS 3 Zrotation Xrotation Yrotation
    JOINT lThigh
    {
      OFFSET 0 -1.70687 -2.19456
      CHANNELS 3 Zrotation Xrotation Yrotation
      JOINT lShin
      {
        OFFSET 0 -36.8199 0.73152
        CHANNELS 3 Zrotation Xrotation Yrotation
        JOINT lFoot
        {
          OFFSET -0.73152 -45.1104 -5.12064
          CHANNELS 3 Zrotation Xrotation Yrotation
          End Site
          {
            OFFSET 1.1221 -3.69964 12.103
          }
        }
      }
    }
  }
}
MOTION
Frames:	4
Frame Time:	0.00833333
-35.2295 69.5424 0.970264 184.95 -53.3862 -184.824 -5.6048 40.8133 10.1914 -1.56992 -3.67243 0.783683 -10.2074 3.75196 2.29829 29.1119 -40.6486 16.682 -0.0 0.0 0.0 -0.0 0.0 0.0 -4.31348e-13 7.50682e-14 6.03035e-13 75.8089 1.01597 13.9784 -21.3665 -14.8327 42.1143 -0.625452 -21.8912 -3.23702 5.12756e-10 -4.22212e-09 2.45146e-09 8.35194e-10 -7.26961e-09 4.25774e-09 5.12757e-10 -4.22211e-09 2.45146e-09 7.73091 5.47488 0.417314 5.12754e-10 -4.22211e-09 2.45146e-09 2.90554 0.965183 0.102902 5.12758e-10 -4.22211e-09 2.45147e-09 10.2786 0.731801 0.0259123 5.12755e-10 -4.22211e-09 2.45148e-09 2.22167 -0.733487 -0.20892 -4.31399e-13 7.50135e-14 6.02858e-13 -72.5244 20.8887 -6.31218 27.1711 -26.9275 -62.3626 1.13901 -28.8038 4.43214 -8.4595e-10 5.93559e-10 8.15435e-12 -1.46979e-09 1.02807e-09 6.7826e-12 -8.45958e-10 5.93559e-10 8.16644e-12 -7.73091 5.47488 -0.417314 -8.45952e-10 5.93557e-10 8.15616e-12 -2.90554 0.965183 -0.102902 -8.45956e-10 5.93558e-10 8.15331e-12 -10.2786 0.731801 -0.0259123 -8.45946e-10 5.93555e-10 8.14708e-12 -2.22167 -0.733487 0.20892 -2.03217e-16 0.0 -3.88251e-19 -32.8697 -18.9013 -7.09671 -2.23637 68.9252 1.55964 -2.03988 6.3748 -2.29154 2.03217e-16 0.0 3.88251e-19 44.6202 -48.2213 37.5604 0.780604 51.3886 -0.212319 -0.768727 14.6827 5.43585
-38.2622 69.1654 1.00199 184.633 -53.2741 -185.139 -5.63888 40.4653 10.0504 -1.31993 -3.60688 0.7534 -10.4211 3.52323 2.22808 29.3654 -39.3599 16.408 -0.0 0.0 0.0 -0.0 0.0 0.0 -7.2855e-13 1.02666e-13 1.01489e-12 76.1273 0.046575 12.8606 -21.2105 -14.6128 41.7124 -0.589756 -21.2903 -3.13931 1.05133e-09 -6.91056e-09 3.7901e-09 1.7369e-09 -1.1908e-08 6.58793e-09 1.05133e-09 -6.91055e-09 3.7901e-09 7.73091 5.47488 0.417314 1.05133e-09 -6.91055e-09 3.7901e-09 2.90554 0.965183 0.102902 1.05133e-09 -6.91055e-09 3.7901e-09 10.2786 0.731801 0.0259123 1.05133e-09 -6.91055e-09 3.79011e-09 2.22167 -0.733487 -0.20892 -7.28652e-13 1.02653e-13 1.01465e-12 -70.9643 21.6051 -6.22205 27.1759 -26.9447 -62.3907 1.15624 -28.9956 4.46752 -1.10815e-09 1.05831e-09 3.7996e-10 -1.93642e-09 1.83231e-09 6.49202e-10 -1.10816e-09 1.05831e-09 3.79962e-10 -7.73091 5.47488 -0.417314 -1.10815e-09 1.05831e-09 3.7996e-10 -2.90554 0.965183 -0.102902 -1.10815e-09 1.05831e-09 3.79957e-10 -10.2786 0.731801 -0.0259123 -1.10814e-09 1.0583e-09 3.79951e-10 -2.22167 -0.733487 0.20892 -2.03217e-16 0.0 -3.88251e-19 -32.5732 -19.9129 -5.52869 -2.56636 71.025 1.96356 -2.11073 6.53034 -6.45068 2.03217e-16 0.0 3.88251e-19 45.9234 -48.8144 40.023 1.064 57.2337 -0.59026 -0.289726 11.197 3.71665
-41.2791 68.662 1.07425 183.208 -53.1098 -184.643 -6.00911 40.2784 9.99341 -1.0849 -3.55154 0.705722 -10.6004 3.41004 2.22003 29.3868 -38.4151 16.2575 -0.0 0.0 0.0 -0.0 0.0 0.0 -8.42783e-13 1.28803e-13 1.15474e-12 76.3489 -0.912635 11.9312 -21.0252 -14.3583 41.2305 -0.558962 -20.7504 -3.05229 1.48368e-09 -8.05717e-09 4.10601e-09 2.47595e-09 -1.38944e-08 7.14298e-09 1.48368e-09 -8.05717e-09 4.106e-09 7.73091 5.47488 0.417314 1.48368e-09 -8.05717e-09 4.106e-09 2.90554 0.965183 0.102902 1.48368e-09 -8.05717e-09 4.10601e-09 10.2786 0.731801 0.0259123 1.48368e-09 -8.05717e-09 4.10601e-09 2.22167 -0.733487 -0.20892 -8.42916e-13 1.28821e-13 1.15444e-12 -69.3378 22.1321 -6.20768 27.1623 -26.8954 -62.307 1.15032 -28.9356 4.45619 -1.01045e-09 1.2136e-09 1.00967e-09 -1.78337e-09 2.09899e-09 1.7408e-09 -1.01046e-09 1.2136e-09 1.00966e-09 -7.73091 5.47488 -0.417314 -1.01045e-09 1.21359e-09 1.00967e-09 -2.90554 0.965183 -0.102902 -1.01046e-09 1.2136e-09 1.00966e-09 -10.2786 0.731801 -0.0259123 -1.01045e-09 1.21359e-09 1.00966e-09 -2.22167 -0.733487 0.20892 -2.03217e-16 0.0 -3.88251e-19 -32.5314 -21.0418 -4.77048 -2.93363 72.8628 2.38551 -2.19905 6.33491 -9.7607 2.03217e-16 0.0 3.88251e-19 45.9694 -48.7993 41.3512 1.38029 61.833 -0.991474 -0.042233 7.95403 2.5365
-44.2544 68.8486 1.13087 181.61 -52.9067 -184.109 -6.99192 40.3407 10.124 -0.850391 -3.50165 0.634931 -10.6764 3.44725 2.28371 29.0135 -37.948 16.1988 -0.0 0.0 0.0 -0.0 0.0 0.0 -6.48088e-13 1.51419e-13 8.33369e-13 76.5579 -1.98549 11.2426 -20.7908 -14.0434 40.6231 -0.533992 -20.3017 -2.98039 1.74286e-09 -6.56591e-09 2.6003e-09 2.95215e-09 -1.13456e-08 4.53692e-09 1.74286e-09 -6.56591e-09 2.60029e-09 7.73091 5.47488 0.417314 1.74286e-09 -6.56591e-09 2.60029e-09 2.90554 0.965183 0.102902 1.74286e-09 -6.56591e-09 2.60029e-09 10.2786 0.731801 0.0259123 1.74286e-09 -6.56591e-09 2.6003e-09 2.22167 -0.733487 -0.20892 -6.4822e-13 1.51454e-13 8.33031e-13 -67.5209 22.4858 -6.34657 27.1256 -26.766 -62.1013 1.11418 -28.5345 4.38225 -2.13526e-10 8.78033e-10 2.2231e-09 -4.29153e-10 1.51217e-09 3.84854e-09 -2.1353e-10 8.78032e-10 2.2231e-09 -7.73091 5.47488 -0.417314 -2.13528e-10 8.7803e-10 2.2231e-09 -2.90554 0.965183 -0.102902 -2.13531e-10 8.78032e-10 2.2231e-09 -10.2786 0.731801 -0.0259123 -2.13522e-10 8.78028e-10 2.22309e-09 -2.22167 -0.733487 0.20892 -2.03217e-16 0.0 -3.88251e-19 -33.0765 -22.2328 -5.04454 -3.30876 74.3732 2.78306 -2.38183 5.71784 -12.0165 2.03217e-16 0.0 3.88251e-19 43.9658 -48.001 40.8645 1.61883 64.6617 -1.31735 0.076618 4.96785 2.02523
